<?xml version="1.0" standalone="no"?>
<svg viewBox="0 0 200 200" xmlns="http://www.w3.org/2000/svg">
  <path fill="#ffffff" d="M36.9,-62C48.5,-57.2,59,-48.7,61.2,-37.7C63.5,-26.8,57.5,-13.4,51.5,-3.5C45.5,6.5,39.5,12.9,37.8,24.7C36,36.5,38.4,53.6,32.8,57.3C27.2,61,13.6,51.3,5,42.6C-3.7,34,-7.3,26.5,-8.3,20.2C-9.3,13.8,-7.5,8.6,-15.1,5.4C-22.6,2.2,-39.4,1.1,-51.7,-7.1C-64.1,-15.4,-71.9,-30.7,-69.8,-43.3C-67.8,-56,-55.8,-65.9,-42.5,-69.8C-29.2,-73.6,-14.6,-71.4,-1,-69.7C12.6,-68,25.3,-66.9,36.9,-62Z" transform="translate(100 100)" />
</svg>
