<svg xmlns="http://www.w3.org/2000/svg" version="1.1" xmlns:xlink="http://www.w3.org/1999/xlink" xmlns:svgjs="http://svgjs.com/svgjs" width="1440" height="560" preserveAspectRatio="none" viewBox="0 0 1440 560"><g mask="url(&quot;#SvgjsMask1003&quot;)" fill="none"><path d="M 0,213 C 57.6,250.2 172.8,417.6 288,399 C 403.2,380.4 460.8,136.2 576,120 C 691.2,103.8 748.8,286.6 864,318 C 979.2,349.4 1036.8,247 1152,277 C 1267.2,307 1382.4,429.8 1440,468L1440 560L0 560z" fill="rgba(240, 240, 240, 1)"></path><path d="M 0,206 C 96,269.2 288,520.4 480,522 C 672,523.6 768,215.4 960,214 C 1152,212.6 1344,454.8 1440,515L1440 560L0 560z" fill="rgba(255, 255, 255, 1)"></path></g><defs><mask id="SvgjsMask1003"><rect width="1440" height="560" fill="#ffffff"></rect></mask></defs></svg>